<?xml version="1.0" encoding="utf-8"?>
<!-- Generator: Adobe Illustrator 15.0.0, SVG Export Plug-In  -->
<!DOCTYPE svg PUBLIC "-//W3C//DTD SVG 1.1//EN" "http://www.w3.org/Graphics/SVG/1.1/DTD/svg11.dtd" [
	<!ENTITY ns_flows "http://ns.adobe.com/Flows/1.0/">
]>
<svg version="1.1"
	 xmlns="http://www.w3.org/2000/svg" xmlns:xlink="http://www.w3.org/1999/xlink" xmlns:a="http://ns.adobe.com/AdobeSVGViewerExtensions/3.0/"
	 x="0px" y="0px" width="250px" height="250px" viewBox="7.558 5.132 250 250" enable-background="new 7.558 5.132 250 250"
	 xml:space="preserve">
<defs>
</defs>
<rect x="23.058" y="63.382" fill="#6DB6F2" stroke="#FFFFFF" stroke-width="4" stroke-miterlimit="10" width="56" height="35"/>
<rect x="23.058" y="98.382" fill="#6DB6F2" stroke="#FFFFFF" stroke-width="4" stroke-miterlimit="10" width="56" height="34"/>
<rect x="23.058" y="134.382" fill="#6DB6F2" stroke="#FFFFFF" stroke-width="4" stroke-miterlimit="10" width="56" height="33"/>
<rect x="23.058" y="167.382" fill="#6DB6F2" stroke="#FFFFFF" stroke-width="4" stroke-miterlimit="10" width="56" height="35"/>
<rect x="79.058" y="63.382" fill="#6DB6F2" stroke="#FFFFFF" stroke-width="4" stroke-miterlimit="10" width="56" height="35"/>
<rect x="79.058" y="98.382" fill="none" stroke="#FFFFFF" stroke-width="4" stroke-miterlimit="10" width="56" height="34"/>
<rect x="79.058" y="134.382" fill="none" stroke="#FFFFFF" stroke-width="4" stroke-miterlimit="10" width="56" height="33"/>
<rect x="79.058" y="167.382" fill="none" stroke="#FFFFFF" stroke-width="4" stroke-miterlimit="10" width="56" height="35"/>
<rect x="135.058" y="63.382" fill="#6DB6F2" stroke="#FFFFFF" stroke-width="4" stroke-miterlimit="10" width="55" height="35"/>
<rect x="135.058" y="98.382" fill="none" stroke="#FFFFFF" stroke-width="4" stroke-miterlimit="10" width="55" height="34"/>
<rect x="135.058" y="134.382" fill="none" stroke="#FFFFFF" stroke-width="4" stroke-miterlimit="10" width="55" height="33"/>
<rect x="135.058" y="167.382" fill="none" stroke="#FFFFFF" stroke-width="4" stroke-miterlimit="10" width="55" height="35"/>
<rect x="190.058" y="63.382" fill="#6DB6F2" stroke="#FFFFFF" stroke-width="4" stroke-miterlimit="10" width="56" height="35"/>
<rect x="190.058" y="98.382" fill="none" stroke="#FFFFFF" stroke-width="4" stroke-miterlimit="10" width="56" height="34"/>
<rect x="190.058" y="134.382" fill="none" stroke="#FFFFFF" stroke-width="4" stroke-miterlimit="10" width="56" height="33"/>
<rect x="190.058" y="167.382" fill="none" stroke="#FFFFFF" stroke-width="4" stroke-miterlimit="10" width="56" height="35"/>
</svg>
