<?xml version="1.0" encoding="utf-8"?>
<!-- Generator: Adobe Illustrator 15.0.0, SVG Export Plug-In  -->
<!DOCTYPE svg PUBLIC "-//W3C//DTD SVG 1.1//EN" "http://www.w3.org/Graphics/SVG/1.1/DTD/svg11.dtd" [
	<!ENTITY ns_flows "http://ns.adobe.com/Flows/1.0/">
]>
<svg version="1.1"
	 xmlns="http://www.w3.org/2000/svg" xmlns:xlink="http://www.w3.org/1999/xlink" xmlns:a="http://ns.adobe.com/AdobeSVGViewerExtensions/3.0/"
	 x="0px" y="0px" width="250px" height="250px" viewBox="7.558 5.132 250 250" enable-background="new 7.558 5.132 250 250"
	 xml:space="preserve">
<defs>
</defs>
<rect x="109.058" y="48.382" fill="#FFFFFF" width="49" height="9"/>
<polygon fill="#FFFFFF" points="105.058,44.382 163.058,44.382 163.058,50.382 178.058,50.382 178.058,28.382 163.058,28.382 
	163.058,35.382 105.058,35.382 105.058,28.382 89.058,28.382 89.058,50.382 105.058,50.382 "/>
<polygon fill="#FFFFFF" points="88.725,53.382 105.058,53.382 105.058,57.549 "/>
<polygon fill="#FFFFFF" points="163.058,53.267 163.058,57.882 178.558,52.882 "/>
<polygon fill="#FFFFFF" points="61.058,57.382 80.058,57.382 76.808,38.382 64.058,38.382 "/>
<polygon fill="#FFFFFF" points="187.058,57.382 206.058,57.382 202.808,38.382 190.058,38.382 "/>
<path fill="#FFFFFF" d="M235.558,77.382c0-3.25-2.5-3-2.5-3h-17.5l-0.25,2.125l-2.5-0.625c0,0-0.25-1.25-0.25-7.5s-5.5-7-5.5-7
	s-142.5,0-147.5,0s-5.5,7-5.5,7v8l-4,0.25c0-2.75-2-2.25-2-2.25s-11.5,0-14.5,0s-2.5,5-2.5,5s0,36.5,0,40.75s3.375,4.75,3.375,4.75
	l14.875,13.75l4.75-0.25v55h-5v8.25l4.75,0.25c0,8.5,4.25,8.5,4.25,8.5h6v20.75c0,4,4,5.25,4,5.25s11,0,16.25,0s5.75-6,5.75-6v-20
	h86c0,0,0,16.75,0,20.75s5,5.25,5,5.25s10.25,0,15.25,0s5.75-5,5.75-5v-21c0,0,0,0,5.75,0s4.25-9,4.25-9h5v-8h-5v-56h5.5
	l14.75-13.375c3.5,0,3-4.375,3-4.375S235.558,80.632,235.558,77.382z M52.058,132.632l-9.75-7.75c4.5,0,3.75-3.5,3.75-3.5v-39.5
	l6,0.25V132.632z M145.808,74.382h56.25c0,0,4-0.5,4,4l0.75,34.125c0,0,0.5,5.875-5.75,5.875s-58,0-58,0s-3.75-0.75-3.75-6.5
	s-0.25-33.625-0.25-33.625S138.058,74.382,145.808,74.382z M202.058,177.132c0,5.799-4.701,10.5-10.5,10.5s-10.5-4.701-10.5-10.5
	s4.701-10.5,10.5-10.5S202.058,171.333,202.058,177.132z M95.558,181.382h76c1.381,0,2.5,1.119,2.5,2.5s-1.119,2.5-2.5,2.5h-76
	c-1.381,0-2.5-1.119-2.5-2.5S94.177,181.382,95.558,181.382z M93.058,169.507v-0.25c0-1.588,1.287-2.875,2.875-2.875h74.25
	c1.588,0,2.875,1.287,2.875,2.875v0.25c0,1.588-1.287,2.875-2.875,2.875h-74.25C94.345,172.382,93.058,171.095,93.058,169.507z
	 M67.808,74.382h56.25c0,0,4-0.5,4,4l0.75,34.125c0,0,0.5,5.875-5.75,5.875s-58,0-58,0s-3.75-0.75-3.75-6.5
	s-0.25-33.625-0.25-33.625S60.058,74.382,67.808,74.382z M84.058,176.757c0,5.729-4.646,10.375-10.375,10.375
	s-10.375-4.646-10.375-10.375s4.646-10.375,10.375-10.375S84.058,171.027,84.058,176.757z M215.058,195.382v4h-164v-4H215.058z
	 M214.058,132.632v-50.5l6-0.25v39.5c0,0-0.75,3.5,3.75,3.5L214.058,132.632z"/>
</svg>
