<?xml version="1.0" encoding="utf-8"?>
<!-- Generator: Adobe Illustrator 15.0.0, SVG Export Plug-In  -->
<!DOCTYPE svg PUBLIC "-//W3C//DTD SVG 1.1//EN" "http://www.w3.org/Graphics/SVG/1.1/DTD/svg11.dtd" [
	<!ENTITY ns_flows "http://ns.adobe.com/Flows/1.0/">
]>
<svg version="1.1"
	 xmlns="http://www.w3.org/2000/svg" xmlns:xlink="http://www.w3.org/1999/xlink" xmlns:a="http://ns.adobe.com/AdobeSVGViewerExtensions/3.0/"
	 x="0px" y="0px" width="250px" height="250px" viewBox="7.558 5.132 250 250" enable-background="new 7.558 5.132 250 250"
	 xml:space="preserve">
<defs>
</defs>
<path fill="#FFFFFF" d="M213.594,143.192c0.727-4.409,1.123-8.93,1.123-13.545c0-4.095-0.31-8.116-0.884-12.052l0.673,1.507
	l24.203-21.243l-9.287-20.229l-31.13,2.554c-4.474-5.982-9.752-11.32-15.652-15.895l3.148-31.23l-20.582-8.473l-21.203,23.266
	c-3.904-0.565-7.893-0.872-11.953-0.872c-3.803,0-7.539,0.279-11.205,0.776L101.217,23.98l-20.5,8.667l1.597,30.973
	c-6.14,4.632-11.61,10.101-16.247,16.235l-31.46-2.755l-8.199,20.693l23.704,21.037c-0.463,3.543-0.727,7.147-0.727,10.816
	c0,4.021,0.302,7.971,0.856,11.838l-23.833,20.919l9.288,20.229l30.891-2.533c4.573,5.925,9.919,11.223,15.908,15.716l-3.165,31.389
	l20.582,8.473l21.808-23.929l-0.338-0.144c3.495,0.451,7.052,0.709,10.67,0.709c3.87,0,7.672-0.287,11.4-0.802l20.449,24.771
	l20.5-8.667l-1.667-32.333l-0.94,0.387c6.942-5.239,13.021-11.555,18.013-18.688l-1.375,3.371l32.08,2.81l8.199-20.693
	l-24.213-21.489L213.594,143.192z M129.531,170.628c-22.178,0-40.157-17.979-40.157-40.157c0-22.178,17.979-40.157,40.157-40.157
	c22.179,0,40.157,17.979,40.157,40.157C169.688,152.649,151.71,170.628,129.531,170.628z"/>
</svg>
