<?xml version="1.0" encoding="utf-8"?>
<!-- Generator: Adobe Illustrator 15.0.0, SVG Export Plug-In  -->
<!DOCTYPE svg PUBLIC "-//W3C//DTD SVG 1.1//EN" "http://www.w3.org/Graphics/SVG/1.1/DTD/svg11.dtd" [
	<!ENTITY ns_flows "http://ns.adobe.com/Flows/1.0/">
]>
<svg version="1.1"
	 xmlns="http://www.w3.org/2000/svg" xmlns:xlink="http://www.w3.org/1999/xlink" xmlns:a="http://ns.adobe.com/AdobeSVGViewerExtensions/3.0/"
	 x="0px" y="0px" width="250px" height="250px" viewBox="7.558 5.132 250 250" enable-background="new 7.558 5.132 250 250"
	 xml:space="preserve">
<defs>
</defs>
<path fill="#FFFFFF" d="M64.058,92.382v116h165v-116H64.058z M183.058,129.206c1,0.317,1.223,0.624,1.898,0.921
	c0.675,0.297,1.307,0.562,2.003,0.797c0.696,0.233,1.366,0.421,2.063,0.558c0.695,0.139,1.375,0.207,2.064,0.207
	c0.704,0,1.301-0.079,1.805-0.238c0.502-0.158,0.905-0.379,1.215-0.661c0.311-0.283,0.537-0.62,0.683-1.014
	c0.145-0.393,0.216-0.824,0.216-1.293c0-0.565-0.121-1.065-0.363-1.5c-0.24-0.435-0.578-0.842-1.013-1.221s-0.96-0.747-1.572-1.106
	c-0.614-0.358-1.3-0.738-2.059-1.138c-0.634-0.331-1.345-0.73-2.13-1.2c-0.787-0.468-1.527-1.051-2.225-1.747
	c-0.695-0.696-1.279-1.538-1.748-2.524c-0.469-0.985-0.703-2.168-0.703-3.548c0-1.351,0.225-2.561,0.672-3.63
	c0.449-1.068,1.087-1.972,1.914-2.71c0.828-0.737,1.831-1.3,3.01-1.687c1.18-0.385,2.5-0.578,3.961-0.578
	c0.731,0,1.444,0.049,2.141,0.145c0.696,0.097,1.387,0.234,2.069,0.414c0.683,0.179,1.369,0.4,2.058,0.662
	c0.69,0.262,1.4,0.564,2.131,0.91l-2.067,4.985c-0.622-0.29-1.2-0.545-1.738-0.766s-1.063-0.407-1.571-0.559
	c-0.511-0.152-1.011-0.266-1.501-0.341c-0.489-0.076-0.982-0.114-1.479-0.114c-1.076,0-1.899,0.286-2.472,0.858
	c-0.573,0.572-0.859,1.334-0.859,2.285c0,0.511,0.087,0.963,0.259,1.355c0.173,0.394,0.448,0.762,0.827,1.106
	c0.38,0.346,0.869,0.696,1.469,1.056c0.601,0.358,1.328,0.765,2.184,1.22c1.033,0.552,1.985,1.114,2.854,1.687
	c0.869,0.572,1.617,1.207,2.245,1.903c0.627,0.696,1.112,1.485,1.458,2.367c0.345,0.884,0.518,1.917,0.518,3.104
	c0,1.352-0.231,2.569-0.693,3.651c-0.462,1.083-1.139,2.007-2.027,2.771c-0.889,0.766-1.979,1.355-3.269,1.769
	c-1.289,0.414-2.769,0.62-4.437,0.62c-1.463,0-2.764-0.151-4.122-0.455c-1.358-0.303-2.667-0.758-3.667-1.364V129.206z
	 M121.058,106.382h18v5h-11v7h10v5h-10v8h11v5h-18V106.382z M89.058,106.382h7.566l11.873,23h0.124c-0.042-1-0.09-2.284-0.145-3.305
	c-0.014-0.44-0.032-0.994-0.052-1.455c-0.021-0.463-0.039-0.974-0.052-1.438c-0.014-0.462-0.161-0.932-0.168-1.359
	c-0.008-0.428-0.147-0.838-0.147-1.183v-14.261h6v30h-8.104l-11.895-23h-0.187c0.083,2,0.152,2.271,0.207,3.318
	c0.055,0.898-0.004,1.916,0.031,2.902c0.033,0.985-0.053,1.95-0.053,2.736v14.043h-5V106.382z M140.058,196.382h-60v-8h60V196.382z
	 M140.058,182.382h-60v-7h60V182.382z M140.058,168.382h-60v-7h60V168.382z M140.058,155.382h-60v-8h60V155.382z M141.635,106.382
	h6.309l3.435,16.48c0.041,0.221,0.1,0.528,0.176,0.947c0.076,0.421,0.162,0.888,0.258,1.411c0.097,0.525,0.197,1.072,0.301,1.651
	s0.203,1.143,0.3,1.695c0.097,0.551,0.187,1.063,0.27,1.539c0.082,0.477,0.144,0.865,0.186,1.168c0.042-0.303,0.1-0.688,0.175-1.157
	c0.076-0.469,0.156-0.97,0.238-1.501c0.084-0.53,0.177-1.078,0.28-1.645c0.104-0.564,0.196-1.093,0.278-1.582
	c0.084-0.49,0.162-0.924,0.238-1.304c0.076-0.379,0.135-0.624,0.177-0.79l4.198-16.914h5.626l4.2,16.914
	c0.041,0.166,0.1,0.425,0.176,0.804c0.074,0.38,0.158,0.807,0.248,1.298c0.09,0.489,0.183,1.013,0.279,1.578
	s0.189,1.112,0.279,1.643c0.09,0.531,0.172,1.03,0.248,1.499c0.075,0.469,0.134,0.854,0.176,1.157
	c0.041-0.303,0.101-0.691,0.176-1.168c0.076-0.476,0.162-0.99,0.259-1.541c0.097-0.553,0.196-1.117,0.3-1.697
	c0.103-0.579,0.203-1.13,0.299-1.654c0.098-0.524,0.184-0.996,0.26-1.417c0.075-0.42,0.134-0.714,0.176-0.935l3.434-16.48h6.31
	l-7.282,30h-7.281l-3.723-14.82c-0.057-0.207-0.121-0.449-0.197-0.821s-0.162-0.77-0.258-1.238c-0.097-0.469-0.193-0.947-0.29-1.457
	c-0.097-0.511-0.186-1.001-0.269-1.484c-0.083-0.482-0.155-0.923-0.217-1.33c-0.063-0.407-0.107-0.734-0.135-0.981
	c-0.028,0.247-0.072,0.576-0.135,0.983s-0.135,0.848-0.217,1.324c-0.083,0.477-0.17,0.97-0.259,1.479
	c-0.091,0.51-0.179,1-0.269,1.468c-0.09,0.469-0.177,0.897-0.259,1.283c-0.083,0.387-0.153,0.595-0.207,0.815l-3.683,14.779h-7.301
	L141.635,106.382z M213.058,197.382h-60v-8h60V197.382z M213.058,183.382h-60v-7h60V183.382z M213.058,169.382h-60v-7h60V169.382z
	 M213.058,156.382h-60v-8h60V156.382z"/>
<polygon fill="#FFFFFF" points="93.48,85.382 188.993,49.655 204.305,85.382 "/>
<polygon fill="#FFFFFF" points="57.058,100.753 57.058,168.56 34.091,106.95 "/>
</svg>
