<?xml version="1.0" encoding="utf-8"?>
<!-- Generator: Adobe Illustrator 15.0.0, SVG Export Plug-In  -->
<!DOCTYPE svg PUBLIC "-//W3C//DTD SVG 1.1//EN" "http://www.w3.org/Graphics/SVG/1.1/DTD/svg11.dtd" [
	<!ENTITY ns_flows "http://ns.adobe.com/Flows/1.0/">
]>
<svg version="1.1"
	 xmlns="http://www.w3.org/2000/svg" xmlns:xlink="http://www.w3.org/1999/xlink" xmlns:a="http://ns.adobe.com/AdobeSVGViewerExtensions/3.0/"
	 x="0px" y="0px" width="250px" height="250px" viewBox="7.558 5.132 250 250" enable-background="new 7.558 5.132 250 250"
	 xml:space="preserve">
<defs>
</defs>
<path fill="#FFFFFF" d="M184.058,232.771c0,0,0-7.42,0-11.728c0-4.31-3.124-4.662-3.124-4.662h-3.589c0,0-5.266-52.361-9.096-74.619
	c-3.831-22.261-21.301-19.72-21.301-19.72l-36.382,0.435c-17.711,0.479-20.822,18.65-20.822,18.65l-9.334,75.254
	c-0.225,0-2.101,0-5.069,0c-5.026,0-4.283,4.619-4.283,4.619s0,7.983,0,12.531c0,4.547,3.325,4.85,3.325,4.85s102.158,0,106.226,0
	C185.058,238.382,184.058,232.771,184.058,232.771z M121.337,215.382l5.984-61.006c0,0,0-7.994,6.223-7.994s17.951,0,17.951,0
	s5.266-0.086,5.983,4.702c0.718,4.786,7.659,64.298,7.659,64.298H121.337z"/>
<polyline fill="none" stroke="#FFFFFF" stroke-width="6" stroke-miterlimit="10" points="63.058,178.382 25.058,145.716 
	61.724,128.049 38.392,103.716 72.391,101.716 58.058,54.382 107.391,72.716 122.058,24.049 149.058,73.382 188.391,40.049 
	184.391,93.049 239.391,104.049 201.725,141.382 238.391,163.049 193.058,191.382 "/>
</svg>
