<?xml version="1.0" encoding="utf-8"?>
<!-- Generator: Adobe Illustrator 15.0.0, SVG Export Plug-In  -->
<!DOCTYPE svg PUBLIC "-//W3C//DTD SVG 1.1//EN" "http://www.w3.org/Graphics/SVG/1.1/DTD/svg11.dtd" [
	<!ENTITY ns_flows "http://ns.adobe.com/Flows/1.0/">
]>
<svg version="1.1"
	 xmlns="http://www.w3.org/2000/svg" xmlns:xlink="http://www.w3.org/1999/xlink" xmlns:a="http://ns.adobe.com/AdobeSVGViewerExtensions/3.0/"
	 x="0px" y="0px" width="250px" height="250px" viewBox="7.558 5.132 250 250" enable-background="new 7.558 5.132 250 250"
	 xml:space="preserve">
<defs>
</defs>
<path fill="#FFFFFF" d="M219.058,204.382c0,0,0-129.75,0-137.5s-8-7.5-8-7.5h-14v24.25c0,4.5-5,6.75-5,6.75s-25.75,0-30.25,0
	s-4.75-6-4.75-6v-25h-48c0,0-0.125,18.031-0.125,24.406s-5.125,4.906-5.125,4.906s-23,0.313-29.75,0.063s-5.25-5.125-5.25-5.125
	l0.25-24.25h-12.75c-10,0-9.5,8.5-9.5,8.5s-0.5,130.5,0,137s7.25,8.5,7.25,8.5h158.5
	C220.308,213.382,219.058,204.382,219.058,204.382z M197.058,191.382h-129v-89h129V191.382z"/>
<path fill="#FFFFFF" d="M100.058,74.382c0,2.762-4.925,5-11,5l0,0c-6.075,0-11-2.238-11-5v-24c0-2.762,4.925-5,11-5l0,0
	c6.075,0,11,2.238,11,5V74.382z"/>
<path fill="#FFFFFF" d="M188.058,74.382c0,2.762-4.925,5-11,5l0,0c-6.075,0-11-2.238-11-5v-24c0-2.762,4.925-5,11-5l0,0
	c6.075,0,11,2.238,11,5V74.382z"/>
<path fill="#FFFFFF" d="M179.058,139.282c0,4.063-4.925,3.344-11,3.344l0,0c-6.075,0-11,0.719-11-3.344v-15.38
	c0-4.062,4.925-4.012,11-4.012l0,0c6.075,0,11,0.281,11,4.344V139.282z"/>
<path fill="#FFFFFF" d="M179.058,173.282c0,4.063-4.925,4.344-11,4.344l0,0c-6.075,0-11-0.281-11-4.344v-14.38
	c0-4.062,4.925-4.012,11-4.012l0,0c6.075,0,11,0.281,11,4.344V173.282z"/>
<path fill="#FFFFFF" d="M144.058,138.282c0,4.063-4.925,4.344-11,4.344l0,0c-6.075,0-11-0.281-11-4.344v-14.38
	c0-4.062,4.925-4.012,11-4.012l0,0c6.075,0,11,0.281,11,4.344V138.282z"/>
<path fill="#FFFFFF" d="M144.058,173.282c0,4.063-4.925,4.344-11,4.344l0,0c-6.075,0-11-0.281-11-4.344v-14.38
	c0-4.062,4.925-4.012,11-4.012l0,0c6.075,0,11,0.281,11,4.344V173.282z"/>
<path fill="#FFFFFF" d="M108.058,138.282c0,4.063-4.925,4.344-11,4.344l0,0c-6.075,0-11-0.281-11-4.344v-14.38
	c0-4.062,4.925-4.012,11-4.012l0,0c6.075,0,11,0.281,11,4.344V138.282z"/>
<path fill="#FFFFFF" d="M108.058,173.282c0,4.063-4.925,4.344-11,4.344l0,0c-6.075,0-11-0.281-11-4.344v-14.38
	c0-4.062,4.925-4.012,11-4.012l0,0c6.075,0,11,0.281,11,4.344V173.282z"/>
</svg>
