<?xml version="1.0" encoding="utf-8"?>
<!-- Generator: Adobe Illustrator 15.0.0, SVG Export Plug-In  -->
<!DOCTYPE svg PUBLIC "-//W3C//DTD SVG 1.1//EN" "http://www.w3.org/Graphics/SVG/1.1/DTD/svg11.dtd" [
	<!ENTITY ns_flows "http://ns.adobe.com/Flows/1.0/">
]>
<svg version="1.1"
	 xmlns="http://www.w3.org/2000/svg" xmlns:xlink="http://www.w3.org/1999/xlink" xmlns:a="http://ns.adobe.com/AdobeSVGViewerExtensions/3.0/"
	 x="0px" y="0px" width="250px" height="250px" viewBox="7.558 5.132 250 250" enable-background="new 7.558 5.132 250 250"
	 xml:space="preserve">
<defs>
</defs>
<polygon fill="none" stroke="#FFFFFF" stroke-width="4" stroke-miterlimit="10" points="58.058,68.382 58.058,212.382 
	175.058,212.382 175.058,26.382 98.058,26.382 "/>
<polygon fill="none" stroke="#FFFFFF" stroke-width="4" stroke-miterlimit="10" points="175.058,37.382 187.058,37.382 
	187.058,224.382 68.058,224.382 68.058,212.382 175.058,212.382 "/>
<polygon fill="none" stroke="#FFFFFF" stroke-width="4" stroke-miterlimit="10" points="187.058,49.382 199.058,49.382 
	200.058,236.382 81.058,236.382 81.058,224.382 188.058,224.382 "/>
<polygon fill="none" stroke="#FFFFFF" stroke-width="4" stroke-linecap="round" stroke-linejoin="round" stroke-miterlimit="10" points="
	58.058,68.382 98.058,26.382 98.058,68.382 "/>
<rect x="79.058" y="119.382" fill="#FFFFFF" width="76" height="7"/>
<rect x="79.058" y="134.382" fill="#FFFFFF" width="76" height="7"/>
<rect x="79.058" y="150.382" fill="#FFFFFF" width="76" height="7"/>
<rect x="79.058" y="167.382" fill="#FFFFFF" width="42" height="7"/>
<rect x="79.058" y="103.382" fill="#FFFFFF" width="76" height="7"/>
</svg>
