<?xml version="1.0" encoding="utf-8"?>
<!-- Generator: Adobe Illustrator 15.0.0, SVG Export Plug-In  -->
<!DOCTYPE svg PUBLIC "-//W3C//DTD SVG 1.1//EN" "http://www.w3.org/Graphics/SVG/1.1/DTD/svg11.dtd" [
	<!ENTITY ns_flows "http://ns.adobe.com/Flows/1.0/">
]>
<svg version="1.1"
	 xmlns="http://www.w3.org/2000/svg" xmlns:xlink="http://www.w3.org/1999/xlink" xmlns:a="http://ns.adobe.com/AdobeSVGViewerExtensions/3.0/"
	 x="0px" y="0px" width="250px" height="250px" viewBox="7.558 5.132 250 250" enable-background="new 7.558 5.132 250 250"
	 xml:space="preserve">
<defs>
</defs>
<path fill="#FFFFFF" d="M64.112,208.693c-6.489-2.967-3.708-19.228-3.708-19.228s7.93-24.274,13.218-36.052
	c5.288-11.776,30.044-18.506,30.044-18.506s17.063-6.01,17.785-14.421c0,0-7.211-5.288-9.133-14.421
	c-6.73-4.807-5.048-16.824-5.048-16.824c-10.095-37.494,15.943-53.357,15.943-53.357c-13.139-10.575-36.212-1.282-36.212-1.282
	C54.636,54.472,68.094,84.916,68.094,84.916C65.851,96.132,72.9,101.26,72.9,101.26c1.281,6.408,7.691,16.022,7.691,16.022
	c-1.922,14.742-6.729,15.061-27.559,22.433c-20.83,7.371-21.471,14.1-21.471,14.1s-10.896,23.394-12.177,33.648
	c-1.282,10.255,5.447,13.461,5.447,13.461S33.588,206.531,64.112,208.693z"/>
<path fill="#FFFFFF" d="M78.388,207.623c0,0-6.921-3.296-5.603-13.844c1.318-10.547,12.524-34.607,12.524-34.607
	s0.66-6.922,22.084-14.503c21.424-7.582,26.367-7.91,28.345-23.072c0,0-6.593-9.888-7.91-16.48c0,0-7.252-5.272-4.944-16.81
	c0,0-13.843-31.313,19.447-51.748c0,0,24.722-8.569,38.234,2.308c0,0,13.513,4.614,15.82,16.151c0,0,8.899,7.251,2.307,30.323
	c0,0,4.615,4.614-5.603,20.765c0,0-1.649,7.25-7.91,15.161c0,0-2.638,10.549,10.218,16.151
	c12.854,5.602,41.529,14.501,45.814,30.322c4.284,15.821,11.536,38.563-1.979,44.167C225.72,217.511,140.023,232.673,78.388,207.623
	z"/>
</svg>
