<?xml version="1.0" encoding="utf-8"?>
<!-- Generator: Adobe Illustrator 15.0.0, SVG Export Plug-In  -->
<!DOCTYPE svg PUBLIC "-//W3C//DTD SVG 1.1//EN" "http://www.w3.org/Graphics/SVG/1.1/DTD/svg11.dtd" [
	<!ENTITY ns_flows "http://ns.adobe.com/Flows/1.0/">
]>
<svg version="1.1"
	 xmlns="http://www.w3.org/2000/svg" xmlns:xlink="http://www.w3.org/1999/xlink" xmlns:a="http://ns.adobe.com/AdobeSVGViewerExtensions/3.0/"
	 x="0px" y="0px" width="250px" height="250px" viewBox="7.558 5.132 250 250" enable-background="new 7.558 5.132 250 250"
	 xml:space="preserve">
<defs>
</defs>
<path fill="#FFFFFF" d="M183.308,142.132c-5.9-2.51-13.851-5.294-17.885-7.052c-13-5.666-10.35-16.35-10.35-16.35
	c6.333-8,7.992-15.341,7.992-15.341c10.333-16.333,5.663-21.004,5.663-21.004c6.667-23.333-2.335-30.668-2.335-30.668
	c-2.333-11.667-16.001-16.335-16.001-16.335c-13.666-11-38.667-2.334-38.667-2.334C78.058,53.716,92.058,85.382,92.058,85.382
	c-2.334,11.667,5,17,5,17c1.333,6.667,8,16.667,8,16.667c-2,15.334-7,15.666-28.666,23.333s-22.334,14.667-22.334,14.667
	s-11.333,24.333-12.666,35c-1.334,10.667,5.666,14,5.666,14c41.339,16.802,89.193,16.716,123.546,12.425
	c0,0-9.546-9.092-9.546-30.592v-30.5c0,0-0.468-5.8,5.25-8.25C172.433,146.507,183.308,142.132,183.308,142.132z"/>
<path fill="#FFFFFF" d="M238.489,159.688l-28.611-12.1c-2.965-1.66-4.639-0.356-4.639-0.356s-26.188,11.27-29.273,12.693
	c-3.083,1.423-2.908,4.271-2.908,4.271v27.759c0,0,0.072,33.097,33.645,33.097c33.57,0,34.355-33.809,34.355-33.809v-27.047
	C241.058,160.638,238.489,159.688,238.489,159.688z M181.159,185.382l0.059-19.431l26.602-11.46l-0.088,30.891H181.159z
	 M207.79,216.699l0.059-31.317h26.336C234.896,218.382,207.79,216.699,207.79,216.699z"/>
</svg>
