<?xml version="1.0" encoding="utf-8"?>
<!-- Generator: Adobe Illustrator 15.0.0, SVG Export Plug-In  -->
<!DOCTYPE svg PUBLIC "-//W3C//DTD SVG 1.1//EN" "http://www.w3.org/Graphics/SVG/1.1/DTD/svg11.dtd" [
	<!ENTITY ns_flows "http://ns.adobe.com/Flows/1.0/">
]>
<svg version="1.1"
	 xmlns="http://www.w3.org/2000/svg" xmlns:xlink="http://www.w3.org/1999/xlink" xmlns:a="http://ns.adobe.com/AdobeSVGViewerExtensions/3.0/"
	 x="0px" y="0px" width="250px" height="250px" viewBox="-34.167 -43.725 250 250" enable-background="new -34.167 -43.725 250 250"
	 xml:space="preserve">
<defs>
</defs>
<path fill="#272727" d="M103.305,0.356c0,0-55.385-6.846-103.305,39.517l86.813,54.764c0,0,15.868,11.2,16.18-9.024L103.305,0.356z"
	/>
<path fill="#272727" d="M16.102,57.064c0,0,3.812,6.145,1.322,43.174c0,0,0.312,10.579,11.514,10.891c0,0,11.63,1.166,19.721-0.39
	c0,0,2.566-27.421-7.818-37.223L16.102,57.064z"/>
<path fill="#272727" d="M108.75,8.29l-0.233,81.291c0,0,1.905,26.485-23.299,11.861L46.811,76.57c0,0,5.231,6.165,6.048,14.1
	l0.816,30.57c0,0,0.467,27.537,37.806,24.114c0,0,23.959-4.978,43.251,9.025c0,0,11.513,9.957,22.403,9.957
	s12.758-3.735,11.202-13.381c0,0-3.423-24.581,4.046-38.583c7.468-14.002,13.068-46.053-7.157-68.145S131.931,13.424,108.75,8.29z"
	/>
</svg>
