<?xml version="1.0" encoding="utf-8"?>
<!-- Generator: Adobe Illustrator 15.0.0, SVG Export Plug-In  -->
<!DOCTYPE svg PUBLIC "-//W3C//DTD SVG 1.1//EN" "http://www.w3.org/Graphics/SVG/1.1/DTD/svg11.dtd" [
	<!ENTITY ns_flows "http://ns.adobe.com/Flows/1.0/">
]>
<svg version="1.1"
	 xmlns="http://www.w3.org/2000/svg" xmlns:xlink="http://www.w3.org/1999/xlink" xmlns:a="http://ns.adobe.com/AdobeSVGViewerExtensions/3.0/"
	 x="0px" y="0px" width="250px" height="250px" viewBox="-56.461 -40.583 250 250" enable-background="new -56.461 -40.583 250 250"
	 xml:space="preserve">
<defs>
</defs>
<path fill="#272727" d="M28.967,0c-8.943,0-16.194,7.251-16.194,16.194c0,8.947,7.251,16.197,16.194,16.197
	c8.947,0,16.198-7.25,16.198-16.197C45.165,7.251,37.914,0,28.967,0z"/>
<circle fill="#272727" cx="70.081" cy="16.196" r="16.196"/>
<circle fill="#272727" cx="111.194" cy="18.065" r="16.196"/>
<path fill="#272727" d="M87.52,39.667h-32.7c-14.949,0-14.78,13.902-14.78,13.902v38c3,14.95,17,16.196,17,16.196v60.424
	c0,5.606,13.256,4.981,13.256,4.981c12.459,0,11.244-4.359,11.244-4.359l0.046-61.046c13.704-4.362,14.454-16.819,14.454-16.819
	V53.569C96.039,38.62,87.52,39.667,87.52,39.667z"/>
<path fill="#272727" d="M128.636,46.667h-24.597v48.017c0,0,0,10.512-5,11.913v55.363c0,0-2.646,5.371,9.268,5.371
	c0,0,9.732,1.168,9.732-5.371v-56.063c0,0,20-3.038,20-14.484V53.569C138.039,53.569,140.784,46.667,128.636,46.667z"/>
<path fill="#272727" d="M39.039,106.597c-6-1.401-6-11.913-6-11.913V46.667H10.905c-12.148,0-10.866,6.902-10.866,6.902v37.843
	c0,11.446,18,14.484,18,14.484v56.063c0,6.539,10.734,5.371,10.734,5.371c11.912,0,10.266-5.371,10.266-5.371V106.597z"/>
</svg>
