<?xml version="1.0" encoding="utf-8"?>
<!-- Generator: Adobe Illustrator 15.0.0, SVG Export Plug-In  -->
<!DOCTYPE svg PUBLIC "-//W3C//DTD SVG 1.1//EN" "http://www.w3.org/Graphics/SVG/1.1/DTD/svg11.dtd" [
	<!ENTITY ns_flows "http://ns.adobe.com/Flows/1.0/">
]>
<svg version="1.1"
	 xmlns="http://www.w3.org/2000/svg" xmlns:xlink="http://www.w3.org/1999/xlink" xmlns:a="http://ns.adobe.com/AdobeSVGViewerExtensions/3.0/"
	 x="0px" y="0px" width="250px" height="250px" viewBox="-56.282 -48.005 250 250" enable-background="new -56.282 -48.005 250 250"
	 xml:space="preserve">
<defs>
</defs>
<path fill="#272727" d="M130.218,130.245V82.308c0,0,8.176,2.08,7.877-22.879c0,0-0.463-10.4-6.031-10.994l-3.22-26.887
	c0,0-0.337-5.304-11.629-5.304h-7.997V5.648c0,0,0.781-5.646-6.648-5.646c0,0-6.352-0.296-6.352,5.051v11.191H72.06h-1.783H41.218
	V5.054c0-5.347-6.352-5.051-6.352-5.051c-7.43,0-6.648,5.646-6.648,5.646v10.596h-3.7c-11.292,0-14.715,5.304-14.715,5.304
	l-3.341,26.89C0.894,49.032,0.009,59.43,0.009,59.43C-0.29,84.389,7.218,82.308,7.218,82.308v48.134
	c-3,5.349,0.661,8.803,0.661,8.803h4.339v15.563c2,1.782,6.799,1.933,6.799,1.933c7.129,0,6.201-1.339,6.201-1.339v-16.156h45.059
	h1.783h40.158v16.156c0,0-0.928,1.339,6.201,1.339c0,0,4.799-0.15,6.799-1.933v-15.563h8.636c0,0,2.973-4,0-9H130.218z
	 M123.218,124.245h-107v-7h107V124.245z M123.218,111.245h-107v-6h107V111.245z M18.873,92.04c0-2.913,3.99-5.273,8.914-5.273
	c4.923,0,8.914,2.36,8.914,5.273c0,2.912-3.991,5.273-8.914,5.273C22.863,97.313,18.873,94.952,18.873,92.04z M104.446,92.04
	c0-2.913,3.99-5.273,8.914-5.273c4.923,0,8.913,2.36,8.913,5.273c0,2.912-3.99,5.273-8.913,5.273
	C108.437,97.313,104.446,94.952,104.446,92.04z M14.565,77.245l3.12-49.213c0.147-2.676,2.229-2.787,2.229-2.787s97.234,0,99.61,0
	s2.379,2.641,2.379,2.641l2.97,49.359H14.565z"/>
</svg>
