<?xml version="1.0" encoding="utf-8"?>
<!-- Generator: Adobe Illustrator 15.0.0, SVG Export Plug-In  -->
<!DOCTYPE svg PUBLIC "-//W3C//DTD SVG 1.1//EN" "http://www.w3.org/Graphics/SVG/1.1/DTD/svg11.dtd" [
	<!ENTITY ns_flows "http://ns.adobe.com/Flows/1.0/">
]>
<svg version="1.1"
	 xmlns="http://www.w3.org/2000/svg" xmlns:xlink="http://www.w3.org/1999/xlink" xmlns:a="http://ns.adobe.com/AdobeSVGViewerExtensions/3.0/"
	 x="0px" y="0px" width="250px" height="250px" viewBox="-31.236 -22.987 250 250" enable-background="new -31.236 -22.987 250 250"
	 xml:space="preserve">
<defs>
</defs>
<path fill="#FFFFFF" stroke="#FFFFFF" stroke-miterlimit="10" d="M90.255,30.85c-39.223,0-71.018,31.795-71.018,71.018
	s31.795,71.019,71.018,71.019c39.222,0,71.018-31.796,71.018-71.019S129.477,30.85,90.255,30.85z M90.255,120.709
	c-10.406,0-18.842-8.435-18.842-18.842c0-10.406,8.436-18.841,18.842-18.841s18.842,8.435,18.842,18.841
	C109.097,112.274,100.661,120.709,90.255,120.709z"/>
<circle fill="#FFFFFF" stroke="#FFFFFF" stroke-miterlimit="10" cx="90.255" cy="101.867" r="12.464"/>
<path fill="#FFFFFF" stroke="#FFFFFF" stroke-miterlimit="10" d="M30.096,154.622c0,0,22.252,27.526,59.645,27.526
	s59.646-26.386,59.646-26.386h3.479c0,0,8.116,0.154,8.406,13.054c0,0,4.348-2.096,5.217,4.281c0,0,30.726-6.772,14.203-40.978
	c0,0-12.172,0.526-15.362-9.329c-3.188-9.854,3.769-17.998,10.436-18.577c6.667-0.581,13.333,1.436,15.362,7.521
	c2.029,6.088,1.159,12.169-1.738,14.488c0,0,26.667,44.056-22.61,55.65c0,0-1.159,4.452-5.507,4.741c0,0,2.898,11.147-7.247,13.147
	H26.773c0,0-8.01-2.239-9.01-8.037v-28.116C17.764,163.609,20.383,154.622,30.096,154.622z"/>
<path fill="#FFFFFF" stroke="#FFFFFF" stroke-width="7" stroke-linecap="round" stroke-miterlimit="10" d="M123.589,19.545
	c0,0,24.93,8.986,39.423,33.333"/>
<path fill="#FFFFFF" stroke="#FFFFFF" stroke-width="7" stroke-linecap="round" stroke-miterlimit="10" d="M131.415,4.182
	c0,0,33.335,15.363,46.38,40.002"/>
<path fill="#FFFFFF" stroke="#FFFFFF" stroke-width="7" stroke-linecap="round" stroke-miterlimit="10" d="M17.369,52.919
	c0,0,12.96-23.114,39.361-33.407"/>
<path fill="#FFFFFF" stroke="#FFFFFF" stroke-width="7" stroke-linecap="round" stroke-miterlimit="10" d="M3.5,42.673
	c0,0,20.636-30.355,47.082-39.173"/>
</svg>
