<?xml version="1.0" encoding="utf-8"?>
<!-- Generator: Adobe Illustrator 15.0.0, SVG Export Plug-In  -->
<!DOCTYPE svg PUBLIC "-//W3C//DTD SVG 1.1//EN" "http://www.w3.org/Graphics/SVG/1.1/DTD/svg11.dtd" [
	<!ENTITY ns_flows "http://ns.adobe.com/Flows/1.0/">
]>
<svg version="1.1"
	 xmlns="http://www.w3.org/2000/svg" xmlns:xlink="http://www.w3.org/1999/xlink" xmlns:a="http://ns.adobe.com/AdobeSVGViewerExtensions/3.0/"
	 x="0px" y="0px" width="250px" height="250px" viewBox="-59.748 -22.75 250 250" enable-background="new -59.748 -22.75 250 250"
	 xml:space="preserve">
<defs>
</defs>
<path d="M101.669,195.583c-1.979-5.665-7.833-9.083-7.833-9.083c-10.731-6.774-22.778-6.18-24.787-6.025
	c-2.009-0.154-14.056-0.749-24.787,6.025c0,0-5.854,3.418-7.833,9.083c-2.417,6.917-5.334,16.584,13.666,15.584l18.954-0.245
	l18.954,0.245C107.003,212.167,104.086,202.5,101.669,195.583z"/>
<path d="M68.752,0c-78,0-68.375,102.125-68.375,102.125c41.5,34,36.625,77.125,36.625,77.125c12.75-9.25,31.75-6.75,31.75-6.75
	s19.124-2.5,31.874,6.75c0,0-4.937-43.125,36.563-77.125C137.189,102.125,146.752,0,68.752,0z M44.752,112.5
	c-8.422,0-15.25-11.864-15.25-26.5s6.828-26.5,15.25-26.5s15.25,11.864,15.25,26.5S53.174,112.5,44.752,112.5z M93.752,114.5
	c-8.422,0-15.25-11.864-15.25-26.5s6.828-26.5,15.25-26.5s15.25,11.864,15.25,26.5S102.174,114.5,93.752,114.5z"/>
</svg>
