<?xml version="1.0" encoding="utf-8"?>
<!-- Generator: Adobe Illustrator 15.0.0, SVG Export Plug-In  -->
<!DOCTYPE svg PUBLIC "-//W3C//DTD SVG 1.1//EN" "http://www.w3.org/Graphics/SVG/1.1/DTD/svg11.dtd" [
	<!ENTITY ns_flows "http://ns.adobe.com/Flows/1.0/">
]>
<svg version="1.1"
	 xmlns="http://www.w3.org/2000/svg" xmlns:xlink="http://www.w3.org/1999/xlink" xmlns:a="http://ns.adobe.com/AdobeSVGViewerExtensions/3.0/"
	 x="0px" y="0px" width="250px" height="250px" viewBox="7.558 5.132 250 250" enable-background="new 7.558 5.132 250 250"
	 xml:space="preserve">
<defs>
</defs>
<path fill="#FFFFFF" d="M153.316,128.695c0,0,3.422,5.497-1.452,10.371s-9.543,2.489-9.543,2.489l-13.481-12.03
	c0,0-9.749-5.739-18.047,2.074c-6.308,5.94-25.72,25.306-25.72,25.306s-7.676,10.578-0.83,19.498
	c6.845,8.919,10.164,10.993,10.164,10.993s13.69,8.505,24.062-2.074s11.408-11.616,11.408-11.616s6.223-4.355,11.201-0.622
	c4.978,3.734,1.866,10.993,1.866,10.993l-13.689,14.729c0,0-25.099,23.023-51.441-3.112c-26.343-26.136-7.675-48.329-7.053-48.952
	c0.622-0.622,29.247-29.247,29.247-29.247S125.935,95.715,153.316,128.695z"/>
<path fill="#FFFFFF" d="M112.224,148.435c0,0-3.422-5.497,1.453-10.371c4.874-4.874,9.542-2.489,9.542-2.489l13.482,12.03
	c0,0,9.748,5.739,18.046-2.074c6.308-5.94,25.72-25.306,25.72-25.306s7.676-10.578,0.83-19.498
	c-6.844-8.919-10.163-10.993-10.163-10.993s-13.69-8.505-24.063,2.074c-10.37,10.579-11.407,11.616-11.407,11.616
	s-6.224,4.355-11.201,0.622c-4.979-3.734-1.867-10.993-1.867-10.993l13.69-14.729c0,0,25.098-23.023,51.441,3.111
	c26.343,26.137,7.675,48.33,7.052,48.953c-0.622,0.622-29.247,29.247-29.247,29.247S139.605,181.415,112.224,148.435z"/>
</svg>
