<?xml version="1.0" encoding="utf-8"?>
<!-- Generator: Adobe Illustrator 15.0.0, SVG Export Plug-In . SVG Version: 6.00 Build 0)  -->
<svg version="1.2" baseProfile="tiny" id="Layer_1" xmlns="http://www.w3.org/2000/svg" xmlns:xlink="http://www.w3.org/1999/xlink"
	 x="0px" y="0px" width="250px" height="250px" viewBox="0 0 250 250" xml:space="preserve">
<path d="M120.667,18.583c0,0-17.667,31.833-5.5,48.833s11.167,21.334,11.167,29.667s-7.666,13-16.5,9.333
	s-15.667-16.334-9.667-32.667c0,0-38.001,1-30.167,36.667c0,0,19.168,41.333,6.834,48.5s-24.167-16.333-24.167-16.333
	S38.833,196.082,80,216.916c0,0-47.167,1.834-53,11.334c0,0-1.833,12.897,91.667,13.615c0,0,81.833,2.552,98.833-13.115
	c0,0,3.834-9-61.666-12c0,0,29.166-14.333,33.333-51.333s27.5-44.167,27.5-44.167s-16.833-12.332-40.5,6.834
	c0,0,12.499-53-19.334-64.334C125,52.417,122.001,32.167,120.667,18.583z"/>
<path d="M155.5,5c0,0-20.501,14.416-11.667,27.083s9.5,7.333,11.667,20.5c0,0,14.499-11.167,2.333-22S153.167,8.75,155.5,5z"/>
</svg>
