<?xml version="1.0" encoding="utf-8"?>
<!-- Generator: Adobe Illustrator 15.0.0, SVG Export Plug-In  -->
<!DOCTYPE svg PUBLIC "-//W3C//DTD SVG 1.1//EN" "http://www.w3.org/Graphics/SVG/1.1/DTD/svg11.dtd" [
	<!ENTITY ns_flows "http://ns.adobe.com/Flows/1.0/">
]>
<svg version="1.1"
	 xmlns="http://www.w3.org/2000/svg" xmlns:xlink="http://www.w3.org/1999/xlink" xmlns:a="http://ns.adobe.com/AdobeSVGViewerExtensions/3.0/"
	 x="0px" y="0px" width="250px" height="250px" viewBox="-51.994 -9.25 250 250" enable-background="new -51.994 -9.25 250 250"
	 xml:space="preserve">
<defs>
</defs>
<path d="M24.506,0v34h26V1.061c0,0,24.915,7.421,24.915,30.216c0,22.794-24.915,33.927-24.915,33.927v9.012c0,0-9-1.061-22,11.132
	V65.732c0,0-28.506-9.012-28.506-32.866S24.506,0,24.506,0z"/>
<path d="M20.415,102.961c0,0,9.807-23.723,36.312-24.783c0,0,21.734-0.928,49.299,34.921l52.48,2.055V169h-46.648
	c0,0-19.519,25.001-51.852,18.001c0,0,16.667-12.5,1.167-25.167c-2.914-2.382,6.271-6.187,1.5-20.5
	c10.603,8.481,25.065,31.62,42.823,17.572c0,0-31.541,19.073-45.854-50.104c0,0-3.711-12.993-13.253-1.33
	C46.39,107.472,20.149,119.129,20.415,102.961z"/>
<path d="M34.506,113h18.957c0,0,7.107,0.559,7.107,10.973c0,9.469-7.107,10.027-7.107,10.027H11.22c0,0-6.85-0.064-6.973-10.186
	C4.112,112.77,11.756,113,11.756,113H34.506"/>
<path d="M52.884,138c0,0,7.023,1.484,7.023,11.57c0,9.17-7.023,9.43-7.023,9.43H11.138c0,0-6.769,0.215-6.891-9.584
	C4.114,138.719,11.668,138,11.668,138H52.884z"/>
<path d="M37.506,164h18.559c0,0,7.023,1.037,7.023,10.427c0,8.536-7.023,9.573-7.023,9.573H21.74c0,0-6.77-0.594-6.892-9.715
	C14.716,164.326,22.271,164,22.271,164H37.506"/>
<rect x="25.506" y="189" width="25" height="43"/>
</svg>
