<?xml version="1.0" encoding="utf-8"?>
<!-- Generator: Adobe Illustrator 15.0.0, SVG Export Plug-In  -->
<!DOCTYPE svg PUBLIC "-//W3C//DTD SVG 1.1//EN" "http://www.w3.org/Graphics/SVG/1.1/DTD/svg11.dtd" [
	<!ENTITY ns_flows "http://ns.adobe.com/Flows/1.0/">
]>
<svg version="1.1"
	 xmlns="http://www.w3.org/2000/svg" xmlns:xlink="http://www.w3.org/1999/xlink" xmlns:a="http://ns.adobe.com/AdobeSVGViewerExtensions/3.0/"
	 x="0px" y="0px" width="250px" height="250px" viewBox="7.558 5.132 250 250" enable-background="new 7.558 5.132 250 250"
	 xml:space="preserve">
<defs>
</defs>
<path d="M90.058,178.236l6.941,50.001l-0.325,1.681l8.021-42.137l4.071,8.629l-0.4-17.24l16.48,33.364l-7.129-42.358l22.864,27.96
	l0.794,0.702l22.068,19.388l-13.026-29.682l-15.332-25.245l46.614,26.108l-24.367-24.367l13.365,4.629l-3.814-5.183l21.711,9.777
	l-15.012-13.522l46.475,6.043l-41.614-19.872l14.618-0.765l-34.114-13.904l45.733-6.63l-28.865-5.421l13.495-4.811H147.42
	l31.161-16.462l-4.265-1.39l39.735-27.779l-75.348,24.347l41.985-48.366l-33.737,21.737l13.121-22.496l-32.984,30.363l8.625-27.364
	l-11.612,15.369l4.517-29.616l-21.333,46.859l-1.804-31.115l-2.483,4.124l-3.237-23.616l-9.703,51.356v92.217V178.236z
	 M90.058,148.81V95.953l6.625,8.997l4.375-25.866V92.58l3-3.655v18.274l8.607-17.15l-3.428,17.15l5.176-7.312l-2.054,5.624
	l14.297-11.245l-11.83,20.242l20.233-11.247l-7.877,9.279l7.869-1.968l-10.124,7.028l17.149-0.563l-9.84,3.937l18.462,1.405
	l-29.332,7.311l33.644,11.526l-23.616-1.125l-13.495-2.249l16.307,12.09l-5.904-1.969l7.872,10.965l-18.556-11.527l8.997,14.338
	l-6.468-3.372l10.403,18.836l-15.313-15.332l0.993,6.599l-8.151-8.153l1.254,8.303l0.91,4.151l-10.089-19.993l-1.108,14.884
	l-3.929,12.082l-5.481-15.188L90.058,148.81z"/>
<rect x="55.058" y="225.382" width="15" height="25"/>
<rect x="55.058" y="189.382" width="15" height="25"/>
<rect x="55.058" y="153.382" width="15" height="25"/>
<rect x="55.058" y="118.382" width="15" height="25"/>
<rect x="55.058" y="82.382" width="15" height="26"/>
<rect x="55.058" y="48.382" width="15" height="24"/>
<rect x="55.058" y="11.382" width="15" height="25"/>
</svg>
