<?xml version="1.0" encoding="utf-8"?>
<!-- Generator: Adobe Illustrator 15.0.0, SVG Export Plug-In  -->
<!DOCTYPE svg PUBLIC "-//W3C//DTD SVG 1.1//EN" "http://www.w3.org/Graphics/SVG/1.1/DTD/svg11.dtd" [
	<!ENTITY ns_flows "http://ns.adobe.com/Flows/1.0/">
]>
<svg version="1.1"
	 xmlns="http://www.w3.org/2000/svg" xmlns:xlink="http://www.w3.org/1999/xlink" xmlns:a="http://ns.adobe.com/AdobeSVGViewerExtensions/3.0/"
	 x="0px" y="0px" width="250px" height="250px" viewBox="-34.746 -45.238 250 250" enable-background="new -34.746 -45.238 250 250"
	 xml:space="preserve">
<defs>
</defs>
<path fill="#272727" d="M188.313,122.441c0,0-0.979-5.546-8.481-11.418c0,0,6.198-72.422-24.793-92.974
	C124.047-2.503,92.729,0.107,92.729,0.107S52.604-0.872,27.811,36.644c0,0-18.921,46.323-27.403,46.976c0,0-1.631,3.589,1.631,5.22
	c0,0,18.269,14.844,45.019,15.496c0,0,0,58.639,11.418,60.922c0,0,11.092,5.479,21.857-14.747l22.183-41.498h8.809l30.338,31.67
	l13.05-16.95l-25.12-15.978C129.592,107.754,177.873,125.05,188.313,122.441z M71.851,149.843c0,0-6.851,14.027-12.396,5.22
	c0,0-5.546-5.872-4.241-47.955c0,0,25.12,2.61,36.863,1.305C92.076,108.413,79.68,139.078,71.851,149.843z"/>
</svg>
