<?xml version="1.0" encoding="utf-8"?>
<!-- Generator: Adobe Illustrator 15.0.0, SVG Export Plug-In  -->
<!DOCTYPE svg PUBLIC "-//W3C//DTD SVG 1.1//EN" "http://www.w3.org/Graphics/SVG/1.1/DTD/svg11.dtd" [
	<!ENTITY ns_flows "http://ns.adobe.com/Flows/1.0/">
]>
<svg version="1.1"
	 xmlns="http://www.w3.org/2000/svg" xmlns:xlink="http://www.w3.org/1999/xlink" xmlns:a="http://ns.adobe.com/AdobeSVGViewerExtensions/3.0/"
	 x="0px" y="0px" width="250px" height="250px" viewBox="7.558 5.132 250 250" enable-background="new 7.558 5.132 250 250"
	 xml:space="preserve">
<defs>
</defs>
<path d="M227.443,155.835c-0.8,0-1.58,0.085-2.334,0.242l-8.161-16.306c2.368-2.076,3.87-5.115,3.87-8.512
	c0-3.54-1.626-6.699-4.171-8.776l8.105-17.415c0.863,0.211,1.762,0.335,2.69,0.335c6.254,0,11.325-5.071,11.325-11.326
	s-5.071-11.325-11.325-11.325c-6.256,0-11.326,5.07-11.326,11.325c0,3.523,1.608,6.67,4.131,8.747l-8.115,17.432
	c-0.849-0.203-1.845-0.321-2.755-0.321c-5.721,0-9.32,4.244-11.32,9.752v-0.499l-14.732,0.014
	c-0.969-5.271-5.521-9.267-11.072-9.267c-0.885,0-1.713,0.111-2.54,0.304l-12.396-22.1c1.994-2.042,3.232-4.829,3.232-7.908
	c0-6.254-5.067-11.325-11.323-11.325c-5.521,0-10.11,3.953-11.114,9.182l-26.489-0.015c-1.008-5.222-5.598-9.167-11.114-9.167
	c-2.261,0-4.363,0.671-6.132,1.813L83.806,70.164c2.484-4.327,1.89-9.94-1.808-13.636c-0.743-0.743-1.568-1.349-2.438-1.842
	l5.663-17.008c3.365,0.436,6.886-0.626,9.469-3.21c4.423-4.422,4.423-11.595,0-16.018c-4.422-4.422-11.595-4.422-16.018,0.001
	c-4.423,4.422-4.423,11.595,0,16.017c0.565,0.566,1.178,1.057,1.821,1.478l-5.76,17.302c-3.142-0.206-6.354,0.88-8.755,3.282
	c-2.503,2.503-3.587,5.887-3.256,9.155l-18.045,6.583c-0.462-0.761-1.009-1.482-1.665-2.139c-4.423-4.423-11.593-4.423-16.017,0
	c-4.422,4.422-4.422,11.595,0,16.017c4.424,4.424,11.594,4.424,16.017,0.001c2.49-2.49,3.578-5.854,3.264-9.104l18.065-6.588
	c0.456,0.742,0.994,1.449,1.638,2.093c3.923,3.923,10.002,4.358,14.413,1.325l10.468,10.45c-1.057,1.722-1.678,3.741-1.678,5.91
	c0,3.116,1.26,5.938,3.297,7.986l-12.465,22.395l0.075,0.043c-1.229-0.458-2.553-0.72-3.941-0.72
	c-6.256,0-11.327,5.07-11.327,11.325s5.071,11.326,11.327,11.326c1.13,0,2.221-0.17,3.251-0.479l12.7,22.614
	c-1.808,2.007-2.917,4.655-2.917,7.567c0,3.248,1.375,6.168,3.564,8.234l-7.101,12.089c-1.345-0.563-2.83-0.876-4.377-0.876
	c-5.723,0-9.213,4.244-11.213,9.752v-0.499l-12.276,0.011c-0.972-5.269-5.576-9.264-11.125-9.264
	c-6.256,0-11.325,5.07-11.325,11.325s5.071,11.326,11.327,11.326c5.224,0,9.602-3.544,10.909-8.355l12.49-0.01v-1.379
	c2,5.505,5.494,9.744,11.211,9.744c1.434,0,2.805-0.278,4.067-0.764l-0.962,0.483l4.102,8.198c-2.685,2.071-4.421,5.311-4.421,8.963
	c0,6.256,5.07,11.326,11.325,11.326c6.256,0,11.326-5.07,11.326-11.326c0-6.254-5.07-11.325-11.324-11.325
	c-0.802,0-1.581,0.085-2.338,0.244l-4.17-8.333l-1.589,0.795c3.19-2.003,5.318-5.543,5.318-9.588c0-2.878-1.084-5.497-2.852-7.495
	l7.327-12.482c1.083,0.344,2.235,0.532,3.431,0.532c5.261,0,9.67-3.591,10.943-8.453l26.838,0.014
	c1.278,4.854,5.686,8.439,10.941,8.439c1.874,0,3.638-0.464,5.195-1.27l-2.295,1.376l6.021,10.045
	c-2.938,2.047-4.863,5.443-4.863,9.294c0,6.255,5.071,11.326,11.327,11.326c5.224,0,9.61-3.544,10.918-8.355l15.342-0.013
	c1.303,4.818,5.692,8.368,10.923,8.368c6.254,0,11.325-5.071,11.325-11.326s-5.071-11.325-11.325-11.325
	c-5.546,0-10.152,3.987-11.129,9.25l-14.926,0.014c-0.97-5.269-5.579-9.264-11.128-9.264c-0.589,0-1.162,0.059-1.726,0.145
	l-6.443-10.746l-0.775,0.464c2.949-2.045,4.884-5.449,4.884-9.31c0-3.313-1.432-6.284-3.699-8.354l12.154-21.839
	c1.044,0.317,2.149,0.491,3.298,0.491c5.224,0,9.495-3.542,10.802-8.353l14.945-0.013v-1.379c2,5.505,5.604,9.744,11.32,9.744
	c1.049,0,2.119-0.154,3.083-0.421l8.052,16.029c-2.687,2.071-4.411,5.312-4.411,8.966c0,6.255,5.079,11.326,11.335,11.326
	c6.254,0,11.328-5.071,11.328-11.326S233.697,155.835,227.443,155.835z M73.804,73.19c-4.75,0-8.603-3.853-8.603-8.603
	c0-4.749,3.853-8.602,8.603-8.602c4.749,0,8.603,3.853,8.603,8.602C82.406,69.338,78.553,73.19,73.804,73.19z M89.88,203.061
	c0,4.75-3.853,8.603-8.603,8.603s-8.603-3.853-8.603-8.603s3.853-8.603,8.603-8.603S89.88,198.311,89.88,203.061z M149.232,81.629
	c4.749,0,8.602,3.853,8.602,8.602c0,4.751-3.853,8.604-8.602,8.604c-4.751,0-8.604-3.853-8.604-8.604
	C140.629,85.481,144.481,81.629,149.232,81.629z M91.907,90.23c0-4.749,3.853-8.602,8.603-8.602s8.603,3.853,8.603,8.602
	c0,4.751-3.853,8.604-8.603,8.604S91.907,94.981,91.907,90.23z M76.149,139.862c-4.751,0-8.604-3.853-8.604-8.603
	c0-4.749,3.853-8.603,8.604-8.603c4.749,0,8.602,3.854,8.602,8.603C84.751,136.01,80.898,139.862,76.149,139.862z M100.51,180.892
	c-4.75,0-8.603-3.853-8.603-8.604c0-4.749,3.853-8.602,8.603-8.602s8.603,3.853,8.603,8.602
	C109.112,177.039,105.26,180.892,100.51,180.892z M157.834,172.288c0,4.751-3.853,8.604-8.602,8.604
	c-4.751,0-8.604-3.853-8.604-8.604c0-4.749,3.853-8.602,8.604-8.602C153.981,163.687,157.834,167.539,157.834,172.288z
	 M152.485,161.442c-1.031-0.309-2.121-0.479-3.253-0.479c-5.522,0-10.115,3.953-11.118,9.181l-26.49-0.014
	c-1.008-5.222-5.599-9.167-11.114-9.167c-1.514,0-2.956,0.304-4.275,0.842l-12.46-22.188c2.268-2.072,3.7-5.043,3.7-8.357
	c0-3.639-1.723-6.868-4.39-8.939l1.328,0.739l12.331-22.157c1.179,0.417,2.443,0.654,3.766,0.654c5.261,0,9.67-3.591,10.943-8.452
	l26.838,0.015c1.278,4.854,5.686,8.438,10.941,8.438c1.358,0,2.654-0.251,3.861-0.689l12.115,21.576
	c-2.574,2.076-4.225,5.253-4.225,8.816c0,3.297,1.417,6.255,3.666,8.325L152.485,161.442z M172.311,139.862
	c-4.75,0-8.603-3.853-8.603-8.603c0-4.749,3.853-8.603,8.603-8.603c4.749,0,8.603,3.854,8.603,8.603
	C180.913,136.01,177.06,139.862,172.311,139.862z M209.493,139.862c-4.75,0-8.604-3.853-8.604-8.603
	c0-4.749,3.854-8.603,8.604-8.603c4.749,0,8.602,3.854,8.602,8.603C218.095,136.01,214.242,139.862,209.493,139.862z"/>
</svg>
