<?xml version="1.0" encoding="utf-8"?>
<!-- Generator: Adobe Illustrator 15.0.0, SVG Export Plug-In  -->
<!DOCTYPE svg PUBLIC "-//W3C//DTD SVG 1.1//EN" "http://www.w3.org/Graphics/SVG/1.1/DTD/svg11.dtd" [
	<!ENTITY ns_flows "http://ns.adobe.com/Flows/1.0/">
]>
<svg version="1.1"
	 xmlns="http://www.w3.org/2000/svg" xmlns:xlink="http://www.w3.org/1999/xlink" xmlns:a="http://ns.adobe.com/AdobeSVGViewerExtensions/3.0/"
	 x="0px" y="0px" width="250px" height="250px" viewBox="7.558 5.132 250 250" enable-background="new 7.558 5.132 250 250"
	 xml:space="preserve">
<defs>
</defs>
<path d="M141.908,100.321c-13.126-22.259-21.349-46.796-21.349-46.796c-5.941,17.121-2.051,11.984-19.171,43.942
	c-17.12,31.959-22.256,39.948-22.256,55.986c0,16.039,19.402,37.605,41.427,37.605c22.021,0,40.752-18.261,40.752-37.605
	S155.032,122.577,141.908,100.321z M134.256,151.655c0,0,2.952-14.76-8.855-28.043c0,0,3.247-7.675,2.952-13.873
	c0,0,19.187,20.663,19.187,33.65C147.539,143.39,149.606,170.844,134.256,151.655z"/>
<path d="M80.764,58.505c-7.798-13.224-12.685-27.802-12.685-27.802c-3.528,10.171-1.216,7.12-11.387,26.107
	C46.52,75.796,43.469,80.542,43.469,90.071c0,9.527,11.526,22.341,24.61,22.341s24.212-10.848,24.212-22.341
	S88.561,71.727,80.764,58.505z M76.218,89.002c0,0,1.754-8.768-5.262-16.659c0,0,1.93-4.559,1.754-8.243
	c0,0,11.4,12.276,11.4,19.993C84.11,84.093,85.336,100.401,76.218,89.002z"/>
<path d="M63.101,149.806c0,0-1.836,23.768,8.83,37.733c9.703,12.703,23.682,24.912,46.232,24.912
	c21.766,0,46.034-4.466,63.313-26.518c13.56-17.307,13.557-34.611,13.557-34.611l-15.519,0.179l29.259-45.049l27.119,45.763
	l-18.021-0.179c0,0-2.676,24.978-18.019,45.495c0,0-18.555,32.649-81.712,31.4c-32.114-0.893-52.881-27.499-55.665-35.683
	C60.604,187.747,55.518,176.479,63.101,149.806z"/>
</svg>
