<?xml version="1.0" encoding="utf-8"?>
<!-- Generator: Adobe Illustrator 15.0.0, SVG Export Plug-In  -->
<!DOCTYPE svg PUBLIC "-//W3C//DTD SVG 1.1//EN" "http://www.w3.org/Graphics/SVG/1.1/DTD/svg11.dtd" [
	<!ENTITY ns_flows "http://ns.adobe.com/Flows/1.0/">
]>
<svg version="1.1"
	 xmlns="http://www.w3.org/2000/svg" xmlns:xlink="http://www.w3.org/1999/xlink" xmlns:a="http://ns.adobe.com/AdobeSVGViewerExtensions/3.0/"
	 x="0px" y="0px" width="250px" height="250px" viewBox="-34.435 -51.25 250 250" enable-background="new -34.435 -51.25 250 250"
	 xml:space="preserve">
<defs>
</defs>
<circle fill="#939393" cx="99.399" cy="86" r="33.667"/>
<path fill="#939393" d="M187.065,134V37.667c0-14-21.866-16.835-21.866-16.835l-19.833-0.082c0-20.375-15.458-20.625-15.458-20.625
	l-29.843-0.087V0l-6.502,0.02L87.065,0v0.038L57.19,0.125c0,0-15.458,0.25-15.458,20.625l-19.833,0.082
	c0,0-21.834,2.835-21.834,16.835V134c0,0-2.333,22,21,22h66h13H166C189.333,156,187.065,134,187.065,134z M26.398,57
	c-5.707,0-10.333-4.626-10.333-10.333s4.626-10.333,10.333-10.333s10.333,4.626,10.333,10.333S32.105,57,26.398,57z M99.399,134.334
	c-26.694,0-48.334-21.64-48.334-48.334c0-26.693,21.64-48.333,48.334-48.333c26.693,0,48.333,21.64,48.333,48.333
	C147.732,112.694,126.092,134.334,99.399,134.334z"/>
</svg>
