<?xml version="1.0" encoding="utf-8"?>
<!-- Generator: Adobe Illustrator 15.0.0, SVG Export Plug-In  -->
<!DOCTYPE svg PUBLIC "-//W3C//DTD SVG 1.1//EN" "http://www.w3.org/Graphics/SVG/1.1/DTD/svg11.dtd" [
	<!ENTITY ns_flows "http://ns.adobe.com/Flows/1.0/">
]>
<svg version="1.1"
	 xmlns="http://www.w3.org/2000/svg" xmlns:xlink="http://www.w3.org/1999/xlink" xmlns:a="http://ns.adobe.com/AdobeSVGViewerExtensions/3.0/"
	 x="0px" y="0px" width="250px" height="250px" viewBox="7.558 5.132 250 250" enable-background="new 7.558 5.132 250 250"
	 xml:space="preserve">
<defs>
</defs>
<path d="M172.058,83.527l-7.141-50.001l0.227-1.68l-8.071,42.137l-4.097-8.629l0.389,17.24l-16.487-33.364l7.126,42.358
	l-22.865-27.96l-0.795-0.702L98.273,43.538L111.3,73.22l15.332,25.245L80.018,72.356l24.367,24.367L91.02,92.095l3.814,5.183
	L73.123,87.5l15.012,13.522L41.66,94.979l41.614,19.872l-14.618,0.765l34.114,13.904l-45.733,6.63l28.865,5.421l-13.495,4.811
	h41.891l-31.161,16.462l4.265,1.39l-39.735,27.779l75.348-24.347l-41.985,48.366l33.737-21.737l-13.121,22.496l32.984-30.363
	l-8.625,27.364l11.612-15.369l-4.517,29.616l21.333-46.859l1.804,31.115l2.483-4.124l3.436,23.616l9.902-51.356V88.214V83.527z
	 M172.058,112.954v52.856l-6.625-8.997l-4.375,25.866v-13.496l-3,3.655v-18.274l-8.807,17.15l3.329-17.15l-5.226,7.312l2.028-5.624
	l-14.309,11.245l11.823-20.242l-20.236,11.247l7.876-9.279l-7.87,1.968l10.123-7.028l-17.149,0.563l9.84-3.937l-18.462-1.405
	l29.332-7.311l-33.644-11.526l23.616,1.125l13.495,2.249l-16.307-12.09l5.904,1.969l-7.872-10.965l18.556,11.527l-8.997-14.338
	l6.468,3.372L131.167,84.56l15.313,15.332l-0.993-6.599l8.151,8.153l-1.254-8.303l-0.91-4.151l10.089,19.993l1.108-14.884
	l3.929-12.082l5.68,15.188L172.058,112.954z"/>
<rect x="192.058" y="11.382" width="15" height="25"/>
<rect x="192.058" y="47.382" width="15" height="25"/>
<rect x="192.058" y="83.382" width="15" height="25"/>
<rect x="192.058" y="118.382" width="15" height="25"/>
<rect x="192.058" y="153.382" width="15" height="26"/>
<rect x="192.058" y="189.382" width="15" height="24"/>
<rect x="192.058" y="225.382" width="15" height="25"/>
</svg>
