<?xml version="1.0" encoding="utf-8"?>
<!-- Generator: Adobe Illustrator 15.0.0, SVG Export Plug-In . SVG Version: 6.00 Build 0)  -->
<svg version="1.2" baseProfile="tiny" id="Layer_1" xmlns="http://www.w3.org/2000/svg" xmlns:xlink="http://www.w3.org/1999/xlink"
	 x="0px" y="0px" width="250px" height="250px" viewBox="0 0 250 250" xml:space="preserve">
<g>
	<circle fill="#FFFFFF" cx="86.738" cy="63.429" r="14.512"/>
	<circle fill="#FFFFFF" cx="123.578" cy="63.429" r="14.512"/>
	<circle fill="#FFFFFF" cx="160.419" cy="65.104" r="14.512"/>
	<path fill="#FFFFFF" d="M139.205,85.25h-29.302C96.508,85.25,96.5,96.919,96.5,96.919v34.05c2,13.396,16,14.513,16,14.513v54.144
		c0,5.023,11.574,4.464,11.574,4.464c11.164,0,9.923-3.906,9.923-3.906l0.296-54.701c12.279-3.909,13.207-15.071,13.207-15.071
		V96.919C147.5,83.522,139.205,85.25,139.205,85.25z"/>
	<path fill="#FFFFFF" d="M176.048,90.25H153.5v43.509c0,0,0,9.42-4,10.676v49.608c0,0-1.885,4.813,8.791,4.813
		c0,0,9.209,1.047,9.209-4.813v-50.236c0,0,17-2.722,17-12.979V96.919C184.5,96.919,186.934,90.25,176.048,90.25z"/>
	<path fill="#FFFFFF" d="M95.5,144.435c-5-1.256-5-10.676-5-10.676V90.25H70.553c-10.886,0-10.053,6.669-10.053,6.669v33.909
		c0,10.257,17,12.979,17,12.979v50.236c0,5.86,9.209,4.813,9.209,4.813c10.675,0,8.791-4.813,8.791-4.813V144.435z"/>
</g>
</svg>
