<?xml version="1.0" encoding="utf-8"?>
<!-- Generator: Adobe Illustrator 15.0.0, SVG Export Plug-In . SVG Version: 6.00 Build 0)  -->
<svg version="1.2" baseProfile="tiny" id="Layer_1" xmlns="http://www.w3.org/2000/svg" xmlns:xlink="http://www.w3.org/1999/xlink"
	 x="0px" y="0px" width="250px" height="250px" viewBox="0 0 250 250" xml:space="preserve">
<g>
	<path fill="#FFFFFF" d="M180.5,159.25v-43.673c0,0,6.902,1.868,6.635-20.543c0,0-0.635-9.339-5.635-9.872l-3-24.146
		c0,0-0.413-4.766-10.553-4.766H161.5v-9.507c0,0,0.537-5.069-6.133-5.069c0,0-5.867-0.266-5.867,4.535V56.25h-22.099h-1.601H100.5
		V46.209c0-4.801-5.867-4.535-5.867-4.535c-6.67,0-6.133,5.069-6.133,5.069v9.507h-3.787c-10.14,0-13.213,4.766-13.213,4.766
		l-3,24.146c-5,0.533-5.635,9.872-5.635,9.872c-0.268,22.411,6.635,20.543,6.635,20.543v43.221c-2,4.803,0.272,8.452,0.272,8.452
		H74.5v13.426c2,1.601,5.768,1.735,5.768,1.735c6.402,0,5.232-1.202,5.232-1.202V167.25h40.301h1.601H164.5v13.959
		c0,0-1.17,1.202,5.232,1.202c0,0,3.768-0.135,5.768-1.735V167.25h7.388c0,0,2.669-4,0-8H180.5z M173.5,153.25h-96v-6h96V153.25z
		 M173.5,142.25h-96v-6h96V142.25z M79.645,124.315c0-2.615,3.583-4.735,8.004-4.735s8.004,2.12,8.004,4.735
		s-3.583,4.735-8.004,4.735S79.645,126.931,79.645,124.315z M156.482,124.315c0-2.615,3.583-4.735,8.004-4.735
		s8.004,2.12,8.004,4.735s-3.583,4.735-8.004,4.735S156.482,126.931,156.482,124.315z M75.776,111.25l2.802-44.344
		c0.133-2.402,2.001-2.656,2.001-2.656s87.309,0,89.442,0s2.136,2.525,2.136,2.525l2.667,44.475H75.776z"/>
	<line fill="none" stroke="#FFFFFF" stroke-width="5" stroke-miterlimit="10" x1="47.843" y1="178.692" x2="47.8" y2="217.25"/>
	<line fill="none" stroke="#FFFFFF" stroke-width="5" stroke-miterlimit="10" x1="202.367" y1="178.692" x2="202.319" y2="217.25"/>
	<g>
		<line fill="none" stroke="#FFFFFF" stroke-width="5" stroke-miterlimit="10" x1="47.5" y1="199.75" x2="54.5" y2="199.75"/>
		
			<line fill="none" stroke="#FFFFFF" stroke-width="5" stroke-miterlimit="10" stroke-dasharray="15,15" x1="70.5" y1="199.75" x2="186.5" y2="199.75"/>
		<line fill="none" stroke="#FFFFFF" stroke-width="5" stroke-miterlimit="10" x1="194.5" y1="199.75" x2="201.5" y2="199.75"/>
	</g>
</g>
</svg>
