<?xml version="1.0" encoding="utf-8"?>
<!-- Generator: Adobe Illustrator 15.0.0, SVG Export Plug-In . SVG Version: 6.00 Build 0)  -->
<svg version="1.2" baseProfile="tiny" id="Layer_1" xmlns="http://www.w3.org/2000/svg" xmlns:xlink="http://www.w3.org/1999/xlink"
	 x="0px" y="0px" width="250px" height="250px" viewBox="0 0 250 250" xml:space="preserve">
<g>
	<path fill="#FFFFFF" d="M215.477,65.947l-87.304-0.863c0,0-4.673,2.598-4.673,7.362v40.723l-4-0.433V70.279
		c0,0-0.374-3.029-5.139-3.029H68.44L55.5,69.847v-4.766c0,0-3.276-4.333-6.31,0.433l-0.956,3.899c0,0-13.735,18.738-13.735,27.727
		v31.625c0,0,2.891,4.332,16.32,3.032l8.16,3.466c0,0-1.117,16.306,15.345,16.306c0,0,14.043-0.318,14.043-15.318h73.648
		c0,0,0.866,15.535,18.629,15.535c0,0,14.796-1.114,14.796-16.06l26.059-3.494V71.579C221.5,71.579,223.275,65.947,215.477,65.947z
		 M68.5,96.923l-29.76,0.319c0,0,2.949-12.992,10.963-21.992H68.5V96.923z M99.5,97.25h-23v-22h23V97.25z"/>
	<line fill="none" stroke="#FFFFFF" stroke-width="5" stroke-miterlimit="10" x1="29.617" y1="158.692" x2="29.563" y2="197.25"/>
	<line fill="none" stroke="#FFFFFF" stroke-width="5" stroke-miterlimit="10" x1="227.167" y1="158.692" x2="227.112" y2="197.25"/>
	<g>
		<line fill="none" stroke="#FFFFFF" stroke-width="5" stroke-miterlimit="10" x1="28.5" y1="179.75" x2="36.5" y2="179.75"/>
		
			<line fill="none" stroke="#FFFFFF" stroke-width="5" stroke-miterlimit="10" stroke-dasharray="14,14" x1="50.5" y1="179.75" x2="211.5" y2="179.75"/>
		<line fill="none" stroke="#FFFFFF" stroke-width="5" stroke-miterlimit="10" x1="218.5" y1="179.75" x2="226.5" y2="179.75"/>
	</g>
</g>
</svg>
